<?xml version="1.0" encoding="UTF-8" standalone="no"?><!DOCTYPE svg PUBLIC "-//W3C//DTD SVG 1.1//EN" "http://www.w3.org/Graphics/SVG/1.1/DTD/svg11.dtd"><svg width="100%" height="100%" viewBox="0 0 285 142" version="1.1" xmlns="http://www.w3.org/2000/svg" xmlns:xlink="http://www.w3.org/1999/xlink" xml:space="preserve" xmlns:serif="http://www.serif.com/" style="fill-rule:evenodd;clip-rule:evenodd;stroke-linecap:round;stroke-linejoin:round;stroke-miterlimit:1.5;"><g><g><g><g><g><g><path d="M103.539,69.223c2.07,-0 3.751,1.654 3.751,3.691c0,2.037 -1.681,3.691 -3.751,3.691c-2.071,-0 -3.752,-1.654 -3.752,-3.691c0,-2.037 1.681,-3.691 3.752,-3.691Zm-0,1.845c1.035,0 1.875,0.827 1.875,1.846c0,1.018 -0.84,1.845 -1.875,1.845c-1.036,0 -1.876,-0.827 -1.876,-1.845c0,-1.019 0.84,-1.846 1.876,-1.846Z"/><path d="M35.252,79.98c-6.789,-2.962 -7.814,-2.761 -12.904,-4.324l0.243,-0.14c11.071,-6.36 22.457,-10.825 33.818,-12.855l-0.099,0.011l-1.144,-1.116c-0.209,-0.195 -0.175,-0.356 0.024,-0.493l9.084,-8.701c0.273,-0.26 0.519,-0.214 0.742,0.085l7.083,8.471c-0,-0 7.346,0.857 13.501,2.3c0.818,0.192 1.635,0.4 2.45,0.624l0,27.158c-2.825,0.687 -5.835,1.269 -9.079,1.803c-1.33,0.219 -2.956,0.475 -4.805,0.643l-9.456,7.434c-0.547,0.536 -0.875,0.419 -1.064,-0.111l-3.491,-8.51c-0,-0 -7.47,-4.386 -7.694,-3.477l-5.539,4.298c-0.305,0.199 -0.592,-0.045 -0.599,-0.115l-11.071,-12.985Zm-34.19,13.645c0,0 11.812,-2.638 15.294,-5.601c3.157,-2.686 5.599,-12.177 5.599,-12.177c-0,0 -11.66,0.893 -15.142,3.856c-3.482,2.963 -5.751,13.922 -5.751,13.922Zm90.046,-28.863c4.055,1.327 8.059,3.066 11.994,5.245c-1.416,0.211 -2.503,1.433 -2.503,2.907c0,1.622 1.317,2.939 2.94,2.939c1.622,0 2.939,-1.317 2.939,-2.939c0,-0.364 -0.066,-0.713 -0.187,-1.035c2.462,1.53 4.897,3.24 7.297,5.135l-0.116,0.116c-6.881,6.864 -13.793,10.604 -22.364,13.062l-0,-25.43Zm-91.108,-6.529c0,0 10.611,2.315 14.336,5.218c3.518,2.743 8.012,12.205 8.012,12.205c0,-0 -11.086,-0.554 -14.81,-3.458c-3.725,-2.903 -7.538,-13.965 -7.538,-13.965Z"/></g><g><path d="M181.364,69.223c-2.07,-0 -3.751,1.654 -3.751,3.691c0,2.037 1.681,3.691 3.751,3.691c2.071,-0 3.752,-1.654 3.752,-3.691c-0,-2.037 -1.681,-3.691 -3.752,-3.691Zm0,1.845c-1.035,0 -1.875,0.827 -1.875,1.846c-0,1.018 0.84,1.845 1.875,1.845c1.036,0 1.876,-0.827 1.876,-1.845c0,-1.019 -0.84,-1.846 -1.876,-1.846Z"/><path d="M249.651,79.98c6.789,-2.962 7.814,-2.761 12.904,-4.324l-0.243,-0.14c-11.071,-6.36 -22.457,-10.825 -33.818,-12.855l0.099,0.011l1.144,-1.116c0.209,-0.195 0.176,-0.356 -0.024,-0.493l-9.084,-8.701c-0.273,-0.26 -0.518,-0.214 -0.742,0.085l-7.083,8.471c0,-0 -7.345,0.857 -13.5,2.3c-0.819,0.192 -1.636,0.4 -2.451,0.624l-0,27.158c2.825,0.687 5.835,1.269 9.079,1.803c1.33,0.219 2.956,0.475 4.805,0.643l9.456,7.434c0.547,0.536 0.875,0.419 1.065,-0.111l3.49,-8.51c0,-0 7.471,-4.386 7.694,-3.477l5.539,4.298c0.305,0.199 0.592,-0.045 0.599,-0.115l11.071,-12.985Zm34.19,13.645c-0,0 -11.812,-2.638 -15.294,-5.601c-3.156,-2.686 -5.599,-12.177 -5.599,-12.177c0,0 11.66,0.893 15.142,3.856c3.482,2.963 5.751,13.922 5.751,13.922Zm-90.046,-28.863c-4.055,1.327 -8.059,3.066 -11.993,5.245c1.415,0.211 2.502,1.433 2.502,2.907c-0,1.622 -1.317,2.939 -2.94,2.939c-1.622,0 -2.939,-1.317 -2.939,-2.939c0,-0.364 0.066,-0.713 0.188,-1.035c-2.463,1.53 -4.897,3.24 -7.298,5.135l0.116,0.116c6.881,6.864 13.793,10.604 22.364,13.062l0,-25.43Zm91.108,-6.529c0,0 -10.611,2.315 -14.336,5.218c-3.518,2.743 -8.012,12.205 -8.012,12.205c0,-0 11.086,-0.554 14.811,-3.458c3.724,-2.903 7.537,-13.965 7.537,-13.965Z"/></g><path d="M92.772,30.327l95.102,95.101" style="fill:none;stroke:#000;stroke-width:5.79px;"/><path d="M187.874,30.327l-95.102,95.101" style="fill:none;stroke:#000;stroke-width:5.06px;"/><path d="M140.358,33.269c2.968,-2.839 7.958,-1.005 8.689,0.163c2.67,2.114 3.425,2.449 4.639,2.53c3.066,0.203 6.262,-1.98 6.788,-5.657c3.301,2.969 1.802,8.516 -1.429,10.883c-1.352,0.992 -3.336,1.799 -6.058,2.348c-7.021,0.783 -11.207,-3.742 -12.664,-4.605c-1.458,0.863 -5.643,5.388 -12.664,4.605c-2.722,-0.549 -4.707,-1.356 -6.059,-2.348c-3.23,-2.367 -4.73,-7.914 -1.429,-10.883c0.527,3.677 3.722,5.86 6.788,5.657c1.214,-0.081 1.969,-0.416 4.639,-2.53c0.734,-1.172 5.761,-3.016 8.725,-0.129l0.035,-0.034Z" style="stroke:#000;stroke-width:2.21px;"/><g><path d="M150.906,113.55c-0,0.239 -0.081,0.462 -0.243,0.672l-19.76,25.732c-0.219,0.285 -0.495,0.428 -0.828,0.428c-0.286,0 -0.543,-0.107 -0.772,-0.321c-0.228,-0.215 -0.343,-0.465 -0.343,-0.75c0,-0.239 0.081,-0.462 0.243,-0.672l19.76,-25.732c0.219,-0.285 0.49,-0.428 0.814,-0.428c0.286,-0 0.545,0.107 0.779,0.321c0.233,0.215 0.35,0.465 0.35,0.75Zm-18.46,4.872c0,0.439 -0.219,0.748 -0.657,0.929l-12.63,5.586l9.301,5.387c0.362,0.209 0.543,0.505 0.543,0.886c0,0.285 -0.1,0.545 -0.3,0.778c-0.2,0.234 -0.452,0.35 -0.757,0.35c-0.172,0 -0.357,-0.057 -0.557,-0.171l-10.959,-6.315c-0.495,-0.276 -0.738,-0.624 -0.728,-1.043c-0,-0.457 0.28,-0.81 0.842,-1.057l14.388,-6.33c0.152,-0.066 0.314,-0.1 0.486,-0.1c0.685,-0.019 1.028,0.348 1.028,1.1Zm32.561,6.387c0,0.457 -0.276,0.819 -0.828,1.086l-14.388,6.315c-0.152,0.076 -0.309,0.114 -0.471,0.114c-0.696,0 -1.043,-0.371 -1.043,-1.114c-0,-0.438 0.214,-0.748 0.643,-0.929l12.658,-5.586l-9.329,-5.387c-0.362,-0.209 -0.538,-0.505 -0.529,-0.886c0,-0.285 0.102,-0.545 0.307,-0.778c0.205,-0.234 0.455,-0.35 0.75,-0.35c0.181,-0 0.367,0.057 0.558,0.171l10.958,6.315c0.476,0.257 0.714,0.6 0.714,1.029Z" style="fill-rule:nonzero;stroke:#000;stroke-width:2.67px;stroke-linecap:butt;stroke-miterlimit:2;"/></g></g><path d="M121.168,14.163c1.443,-8.018 9.489,-14.163 19.186,-14.163c9.697,0 17.744,6.145 19.187,14.163l0.502,0c1.15,0 2.084,0.934 2.084,2.084l-0,4.166c-0,1.15 -0.934,2.084 -2.084,2.084l-39.606,-0c-1.15,-0 -2.083,-0.934 -2.083,-2.084l-0,-4.166c-0,-1.15 0.933,-2.084 2.083,-2.084l0.731,0Z" style="fill:#040000;"/></g></g></g></g></svg>